<svg xmlns="http://www.w3.org/2000/svg" viewBox="0 0 512 512">
  <rect width="512" height="512" fill="#14191F"/>
  <g transform="translate(56 123.6) scale(0.9662)">
    <path fill="#E8ECF0" fill-rule="evenodd" d="M 102.00 165.50 L 100.00 165.50 L 98.00 165.50 L 98.00 164.50 L 99.00 163.50 L 99.50 162.00 L 100.50 161.00 L 101.50 160.00 L 102.50 159.00 L 103.50 158.00 L 104.50 157.00 L 105.50 156.00 L 106.50 155.00 L 107.00 153.50 L 108.00 152.50 L 109.00 151.50 L 110.00 150.50 L 111.00 149.50 L 112.00 148.50 L 113.00 147.50 L 114.00 146.50 L 114.50 145.00 L 115.50 144.00 L 116.50 143.00 L 117.50 142.00 L 118.50 141.00 L 119.50 140.00 L 120.50 139.00 L 121.50 138.00 L 122.00 136.50 L 123.00 135.50 L 124.00 134.50 L 125.00 133.50 L 126.00 132.50 L 127.00 131.50 L 128.00 130.50 L 129.00 129.50 L 130.00 128.50 L 130.50 127.00 L 131.50 126.00 L 132.50 125.00 L 133.50 124.00 L 134.50 123.00 L 135.50 122.00 L 136.50 121.00 L 137.50 120.00 L 138.00 118.50 L 139.00 117.50 L 140.00 116.50 L 141.00 115.50 L 142.00 114.50 L 143.00 113.50 L 144.00 112.50 L 145.00 111.50 L 145.50 110.00 L 146.50 109.00 L 147.50 108.00 L 148.50 107.00 L 149.50 106.00 L 150.50 105.00 L 151.50 104.00 L 152.50 103.00 L 153.50 102.00 L 154.00 100.50 L 155.00 99.50 L 156.00 98.50 L 157.00 97.50 L 158.00 96.50 L 159.00 95.50 L 160.00 94.50 L 161.00 93.50 L 161.50 92.00 L 162.50 91.00 L 163.50 90.00 L 164.50 89.00 L 165.50 88.00 L 166.50 87.00 L 167.50 86.00 L 168.50 85.00 L 169.00 83.50 L 170.00 82.50 L 171.00 81.50 L 172.00 80.50 L 173.00 79.50 L 174.00 78.50 L 175.00 77.50 L 175.50 76.00 L 176.50 75.00 L 177.50 74.00 L 178.50 73.00 L 179.50 72.00 L 180.50 71.00 L 181.50 70.00 L 182.50 69.00 L 183.50 68.00 L 184.50 67.00 L 185.00 65.50 L 186.00 64.50 L 187.00 63.50 L 188.00 62.50 L 189.00 61.50 L 190.00 60.50 L 191.00 59.50 L 191.50 58.00 L 192.50 57.00 L 193.50 56.00 L 194.50 55.00 L 195.50 54.00 L 196.50 53.00 L 197.50 52.00 L 198.50 51.00 L 199.50 50.00 L 200.00 48.50 L 201.00 47.50 L 202.00 46.50 L 203.00 45.50 L 204.00 44.50 L 205.00 43.50 L 206.00 42.50 L 207.00 41.50 L 207.50 40.00 L 208.50 39.00 L 209.50 38.00 L 210.50 37.00 L 211.50 36.00 L 212.50 35.00 L 213.50 34.00 L 214.50 33.00 L 215.50 32.00 L 216.50 31.00 L 217.00 29.50 L 218.00 28.50 L 219.00 27.50 L 220.00 26.50 L 221.00 25.50 L 222.00 24.50 L 223.00 23.50 L 223.50 22.00 L 224.50 21.00 L 225.50 20.00 L 226.50 19.00 L 227.50 18.00 L 228.50 17.00 L 229.50 16.00 L 230.50 15.00 L 231.50 14.00 L 232.00 12.50 L 233.00 11.50 L 234.00 10.50 L 235.00 9.50 L 236.50 10.00 L 237.50 11.00 L 238.50 12.00 L 239.50 13.00 L 241.00 13.50 L 242.00 14.50 L 243.00 15.50 L 244.00 16.50 L 245.00 17.50 L 246.00 18.50 L 247.00 19.50 L 248.50 20.00 L 249.50 21.00 L 250.50 22.00 L 251.50 23.00 L 252.50 24.00 L 253.50 25.00 L 254.50 26.00 L 256.00 26.50 L 257.00 27.50 L 258.00 28.50 L 259.00 29.50 L 260.00 30.50 L 261.00 31.50 L 262.00 32.50 L 263.50 33.00 L 264.50 34.00 L 265.50 35.00 L 266.50 36.00 L 267.50 37.00 L 268.50 38.00 L 270.00 38.50 L 271.00 39.50 L 272.00 40.50 L 273.00 41.50 L 274.00 42.50 L 275.00 43.50 L 276.00 44.50 L 277.50 45.00 L 277.50 47.00 L 276.50 48.00 L 275.50 49.00 L 274.50 50.00 L 274.00 51.50 L 273.00 52.50 L 272.00 53.50 L 271.00 54.50 L 270.00 55.50 L 269.00 56.50 L 268.00 57.50 L 267.00 58.50 L 266.00 59.50 L 265.50 61.00 L 264.50 62.00 L 263.50 63.00 L 262.50 64.00 L 261.50 65.00 L 260.50 66.00 L 259.50 67.00 L 258.50 68.00 L 257.50 69.00 L 256.50 70.00 L 255.50 71.00 L 255.00 72.50 L 254.00 73.50 L 253.00 74.50 L 252.00 75.50 L 251.00 76.50 L 250.00 77.50 L 249.00 78.50 L 248.00 79.50 L 247.50 81.00 L 246.50 82.00 L 245.50 83.00 L 244.50 84.00 L 243.50 85.00 L 242.50 86.00 L 241.50 87.00 L 240.50 88.00 L 239.50 89.00 L 239.00 90.50 L 238.00 91.50 L 237.00 92.50 L 236.00 93.50 L 235.00 94.50 L 234.00 95.50 L 233.00 96.50 L 232.00 97.50 L 231.00 98.50 L 230.00 99.50 L 229.50 101.00 L 228.50 102.00 L 227.50 103.00 L 226.50 104.00 L 225.50 105.00 L 224.50 106.00 L 223.50 107.00 L 222.50 108.00 L 221.50 109.00 L 221.00 110.50 L 220.00 111.50 L 219.00 112.50 L 218.00 113.50 L 217.00 114.50 L 216.00 115.50 L 215.00 116.50 L 214.00 117.50 L 213.00 118.50 L 212.00 119.50 L 211.50 121.00 L 210.50 122.00 L 209.50 123.00 L 208.50 124.00 L 207.50 125.00 L 206.50 126.00 L 205.50 127.00 L 204.50 128.00 L 203.50 129.00 L 203.00 130.50 L 202.00 131.50 L 201.00 132.50 L 200.00 133.50 L 199.00 134.50 L 198.00 135.50 L 197.00 136.50 L 196.00 137.50 L 195.50 139.00 L 194.50 140.00 L 193.50 141.00 L 192.50 142.00 L 191.50 143.00 L 190.50 144.00 L 189.50 145.00 L 188.00 145.50 L 187.00 146.50 L 185.00 146.50 L 183.50 147.00 L 182.00 147.50 L 180.00 147.50 L 178.50 148.00 L 177.00 148.50 L 175.00 148.50 L 174.00 149.50 L 172.00 149.50 L 170.00 149.50 L 169.00 150.50 L 167.00 150.50 L 165.50 151.00 L 164.00 151.50 L 162.00 151.50 L 161.00 152.50 L 159.00 152.50 L 157.50 153.00 L 156.00 153.50 L 154.00 153.50 L 153.00 154.50 L 151.00 154.50 L 149.00 154.50 L 148.00 155.50 L 146.00 155.50 L 144.50 156.00 L 143.00 156.50 L 141.00 156.50 L 139.50 157.00 L 138.00 157.50 L 136.00 157.50 L 134.50 158.00 L 133.00 158.50 L 131.00 158.50 L 130.00 159.50 L 128.00 159.50 L 126.00 159.50 L 125.00 160.50 L 123.00 160.50 L 121.50 161.00 L 120.00 161.50 L 118.00 161.50 L 117.00 162.50 L 115.00 162.50 L 113.00 162.50 L 112.00 163.50 L 110.00 163.50 L 108.00 163.50 L 107.00 164.50 L 105.00 164.50 L 103.00 164.50 L 102.00 165.50 Z M 314.00 149.50 L 312.50 149.00 L 311.50 148.00 L 310.50 147.00 L 309.50 146.00 L 308.50 145.00 L 308.00 143.50 L 307.00 142.50 L 306.00 141.50 L 305.00 140.50 L 304.00 139.50 L 303.00 138.50 L 302.00 137.50 L 301.00 136.50 L 300.00 135.50 L 299.00 134.50 L 298.00 133.50 L 297.00 132.50 L 296.00 131.50 L 295.00 130.50 L 294.00 129.50 L 293.00 128.50 L 292.00 127.50 L 291.00 126.50 L 290.50 125.00 L 289.50 124.00 L 288.50 123.00 L 287.50 122.00 L 286.50 121.00 L 285.50 120.00 L 284.50 119.00 L 283.50 118.00 L 282.50 117.00 L 281.50 116.00 L 280.50 115.00 L 279.50 114.00 L 278.50 113.00 L 277.50 112.00 L 276.50 111.00 L 275.50 110.00 L 275.50 108.00 L 276.00 106.50 L 277.00 105.50 L 278.00 104.50 L 279.00 103.50 L 280.00 102.50 L 281.00 101.50 L 282.00 100.50 L 282.50 99.00 L 283.50 98.00 L 284.50 97.00 L 285.50 96.00 L 286.50 95.00 L 287.50 94.00 L 288.50 93.00 L 289.50 92.00 L 290.50 91.00 L 291.50 90.00 L 292.00 88.50 L 293.00 87.50 L 294.00 86.50 L 295.00 85.50 L 296.00 84.50 L 297.00 83.50 L 298.00 82.50 L 299.00 81.50 L 300.00 80.50 L 301.00 79.50 L 301.50 78.00 L 302.50 77.00 L 303.50 76.00 L 304.50 75.00 L 305.50 74.00 L 306.50 73.00 L 307.50 72.00 L 308.50 71.00 L 309.50 70.00 L 310.50 69.00 L 311.00 67.50 L 312.00 66.50 L 313.00 65.50 L 314.00 64.50 L 315.00 63.50 L 316.00 62.50 L 317.00 61.50 L 318.00 60.50 L 319.00 59.50 L 319.50 58.00 L 320.50 57.00 L 321.50 56.00 L 322.50 55.00 L 323.50 54.00 L 325.00 53.50 L 327.00 53.50 L 329.00 53.50 L 331.00 53.50 L 333.00 53.50 L 335.00 53.50 L 337.00 53.50 L 339.00 53.50 L 341.00 53.50 L 343.00 53.50 L 345.00 53.50 L 347.00 53.50 L 349.00 53.50 L 351.00 53.50 L 353.00 53.50 L 355.00 53.50 L 357.00 53.50 L 359.00 53.50 L 361.00 53.50 L 363.00 53.50 L 365.00 53.50 L 367.00 53.50 L 369.00 53.50 L 371.00 53.50 L 373.00 53.50 L 375.00 53.50 L 377.00 53.50 L 379.00 53.50 L 381.00 53.50 L 383.00 53.50 L 385.00 53.50 L 387.00 53.50 L 389.00 53.50 L 391.00 53.50 L 393.00 53.50 L 395.00 53.50 L 397.00 53.50 L 399.00 53.50 L 400.50 54.00 L 399.50 55.00 L 398.50 56.00 L 397.50 57.00 L 396.50 58.00 L 395.50 59.00 L 394.50 60.00 L 393.50 61.00 L 392.50 62.00 L 391.50 63.00 L 391.00 64.50 L 390.00 65.50 L 389.00 66.50 L 388.00 67.50 L 387.00 68.50 L 386.00 69.50 L 385.00 70.50 L 384.00 71.50 L 383.50 73.00 L 382.50 74.00 L 381.50 75.00 L 380.50 76.00 L 379.50 77.00 L 378.50 78.00 L 377.50 79.00 L 376.50 80.00 L 375.50 81.00 L 374.50 82.00 L 373.50 83.00 L 372.50 84.00 L 372.00 85.50 L 371.00 86.50 L 370.00 87.50 L 369.00 88.50 L 368.00 89.50 L 367.00 90.50 L 366.00 91.50 L 365.00 92.50 L 364.00 93.50 L 363.50 95.00 L 362.50 96.00 L 361.50 97.00 L 360.50 98.00 L 359.50 99.00 L 358.50 100.00 L 357.50 101.00 L 356.50 102.00 L 355.50 103.00 L 354.50 104.00 L 354.00 105.50 L 353.00 106.50 L 352.00 107.50 L 351.00 108.50 L 350.00 109.50 L 349.00 110.50 L 348.00 111.50 L 347.00 112.50 L 346.00 113.50 L 345.00 114.50 L 344.50 116.00 L 343.50 117.00 L 342.50 118.00 L 341.50 119.00 L 340.50 120.00 L 339.50 121.00 L 338.50 122.00 L 337.50 123.00 L 336.50 124.00 L 335.50 125.00 L 335.00 126.50 L 334.00 127.50 L 333.00 128.50 L 332.00 129.50 L 331.00 130.50 L 330.00 131.50 L 329.00 132.50 L 328.00 133.50 L 327.50 135.00 L 326.50 136.00 L 325.50 137.00 L 324.50 138.00 L 323.50 139.00 L 322.50 140.00 L 321.50 141.00 L 320.50 142.00 L 319.50 143.00 L 318.50 144.00 L 317.50 145.00 L 316.50 146.00 L 316.00 147.50 L 315.00 148.50 L 314.00 149.50 Z M 402.00 263.50 L 401.00 262.50 L 399.00 262.50 L 397.00 262.50 L 395.50 263.00 L 394.50 263.00 L 393.00 262.50 L 391.50 263.00 L 390.50 263.00 L 389.00 262.50 L 387.50 263.00 L 386.50 263.00 L 385.00 262.50 L 383.00 262.50 L 381.00 262.50 L 379.00 262.50 L 377.00 262.50 L 375.00 262.50 L 373.00 262.50 L 372.00 263.50 L 371.00 262.50 L 369.00 262.50 L 367.00 262.50 L 365.00 262.50 L 363.00 262.50 L 361.00 262.50 L 359.00 262.50 L 357.50 263.00 L 356.50 263.00 L 355.00 262.50 L 353.50 263.00 L 352.50 263.00 L 351.00 262.50 L 349.00 262.50 L 347.00 262.50 L 345.00 262.50 L 343.50 263.00 L 342.50 263.00 L 341.00 262.50 L 339.00 262.50 L 337.00 262.50 L 335.00 262.50 L 333.00 262.50 L 331.50 263.00 L 330.50 263.00 L 329.00 262.50 L 327.00 262.50 L 326.00 263.50 L 325.00 262.50 L 324.00 261.50 L 323.00 260.50 L 322.00 259.50 L 321.00 258.50 L 320.00 257.50 L 319.00 256.50 L 318.00 255.50 L 317.00 254.50 L 316.00 253.50 L 315.00 252.50 L 314.00 251.50 L 313.50 250.00 L 312.50 249.00 L 311.50 248.00 L 310.50 247.00 L 309.50 246.00 L 308.50 245.00 L 307.50 244.00 L 306.50 243.00 L 305.50 242.00 L 304.50 241.00 L 303.50 240.00 L 302.50 239.00 L 301.50 238.00 L 300.50 237.00 L 299.50 236.00 L 298.50 235.00 L 297.50 234.00 L 296.50 233.00 L 295.50 232.00 L 294.50 231.00 L 293.50 230.00 L 292.50 229.00 L 291.50 228.00 L 290.50 227.00 L 289.50 226.00 L 289.00 224.50 L 288.00 223.50 L 287.00 222.50 L 286.00 221.50 L 285.00 220.50 L 284.00 219.50 L 283.00 218.50 L 282.00 217.50 L 281.00 216.50 L 280.00 215.50 L 279.00 214.50 L 278.00 213.50 L 277.00 212.50 L 276.00 211.50 L 275.00 210.50 L 274.00 209.50 L 273.00 208.50 L 272.00 207.50 L 271.00 206.50 L 270.00 205.50 L 269.00 204.50 L 268.50 203.00 L 267.50 202.00 L 266.50 201.00 L 265.50 200.00 L 264.50 199.00 L 263.50 198.00 L 262.50 197.00 L 261.50 196.00 L 260.50 195.00 L 259.50 194.00 L 258.50 193.00 L 257.00 192.50 L 255.50 193.00 L 254.50 194.00 L 253.50 195.00 L 252.50 196.00 L 251.50 197.00 L 250.50 198.00 L 250.00 199.50 L 249.00 200.50 L 248.00 201.50 L 247.00 202.50 L 246.00 203.50 L 245.00 204.50 L 244.00 205.50 L 243.00 206.50 L 242.00 207.50 L 241.00 208.50 L 240.50 210.00 L 239.50 211.00 L 238.50 212.00 L 237.50 213.00 L 236.50 214.00 L 235.50 215.00 L 234.50 216.00 L 233.50 217.00 L 232.50 218.00 L 231.50 219.00 L 230.50 220.00 L 230.00 221.50 L 229.00 222.50 L 228.00 223.50 L 227.00 224.50 L 226.00 225.50 L 225.00 226.50 L 224.00 227.50 L 223.00 228.50 L 222.00 229.50 L 221.00 230.50 L 220.50 232.00 L 219.50 233.00 L 218.50 234.00 L 217.50 235.00 L 216.50 236.00 L 215.50 237.00 L 214.50 238.00 L 213.50 239.00 L 212.50 240.00 L 211.50 241.00 L 210.50 242.00 L 210.00 243.50 L 209.00 244.50 L 208.00 245.50 L 207.00 246.50 L 206.00 247.50 L 205.00 248.50 L 204.00 249.50 L 203.00 250.50 L 202.00 251.50 L 201.50 253.00 L 200.50 254.00 L 199.50 255.00 L 198.50 256.00 L 197.50 257.00 L 196.50 258.00 L 195.50 259.00 L 194.50 260.00 L 193.50 261.00 L 192.50 262.00 L 191.50 263.00 L 190.50 263.00 L 189.00 262.50 L 187.50 263.00 L 186.50 263.00 L 185.50 263.00 L 184.00 263.50 L 182.00 263.50 L 180.00 263.50 L 178.50 263.00 L 177.50 263.00 L 176.50 263.00 L 175.50 263.00 L 174.50 263.00 L 173.00 262.50 L 171.50 263.00 L 170.50 263.00 L 169.50 263.00 L 168.50 263.00 L 167.50 263.00 L 166.00 263.50 L 164.50 263.00 L 163.00 262.50 L 161.50 263.00 L 160.50 263.00 L 159.00 262.50 L 158.00 263.50 L 156.50 263.00 L 155.00 262.50 L 153.00 262.50 L 151.00 262.50 L 149.00 262.50 L 147.00 262.50 L 145.50 263.00 L 144.00 263.50 L 142.50 263.00 L 141.00 262.50 L 139.50 263.00 L 138.50 263.00 L 137.00 262.50 L 135.00 262.50 L 133.00 262.50 L 131.50 263.00 L 130.50 263.00 L 129.50 263.00 L 128.00 263.50 L 126.50 263.00 L 125.50 263.00 L 124.50 263.00 L 123.50 263.00 L 122.00 263.50 L 120.50 263.00 L 119.00 262.50 L 118.00 263.50 L 117.00 262.50 L 117.00 261.50 L 118.00 260.50 L 119.00 259.50 L 120.00 258.50 L 121.00 257.50 L 122.00 256.50 L 123.00 255.50 L 124.00 254.50 L 125.00 253.50 L 125.50 252.00 L 126.50 251.00 L 127.50 250.00 L 128.50 249.00 L 129.50 248.00 L 130.50 247.00 L 131.50 246.00 L 132.50 245.00 L 133.50 244.00 L 134.50 243.00 L 135.50 242.00 L 136.50 241.00 L 137.00 239.50 L 138.00 238.50 L 139.00 237.50 L 140.00 236.50 L 141.00 235.50 L 142.00 234.50 L 143.00 233.50 L 144.00 232.50 L 145.00 231.50 L 146.00 230.50 L 147.00 229.50 L 147.50 228.00 L 148.50 227.00 L 149.50 226.00 L 150.50 225.00 L 151.50 224.00 L 152.50 223.00 L 153.50 222.00 L 154.50 221.00 L 155.50 220.00 L 156.50 219.00 L 157.00 217.50 L 158.00 216.50 L 159.00 215.50 L 160.00 214.50 L 161.00 213.50 L 162.00 212.50 L 163.00 211.50 L 164.00 210.50 L 165.00 209.50 L 166.00 208.50 L 166.50 207.00 L 167.50 206.00 L 168.50 205.00 L 169.50 204.00 L 170.50 203.00 L 171.50 202.00 L 172.50 201.00 L 173.50 200.00 L 174.50 199.00 L 175.50 198.00 L 176.50 197.00 L 175.00 196.50 L 173.00 196.50 L 171.50 197.00 L 170.00 197.50 L 168.00 197.50 L 166.50 198.00 L 165.00 198.50 L 163.00 198.50 L 162.00 199.50 L 160.00 199.50 L 158.50 200.00 L 157.00 200.50 L 155.00 200.50 L 153.50 201.00 L 152.00 201.50 L 150.00 201.50 L 149.00 202.50 L 147.00 202.50 L 145.50 203.00 L 144.00 203.50 L 142.00 203.50 L 141.00 204.50 L 139.00 204.50 L 137.50 205.00 L 136.50 206.00 L 135.50 207.00 L 134.50 208.00 L 133.50 209.00 L 132.50 210.00 L 131.50 211.00 L 130.50 212.00 L 129.50 213.00 L 129.00 214.50 L 128.00 215.50 L 127.00 216.50 L 126.00 217.50 L 125.00 218.50 L 124.00 219.50 L 123.00 220.50 L 122.00 221.50 L 121.00 222.50 L 120.00 223.50 L 119.00 224.50 L 118.50 226.00 L 117.50 227.00 L 116.50 228.00 L 115.50 229.00 L 114.50 230.00 L 113.50 231.00 L 112.50 232.00 L 111.50 233.00 L 110.50 234.00 L 109.50 235.00 L 109.00 236.50 L 108.00 237.50 L 107.00 238.50 L 106.00 239.50 L 105.00 240.50 L 104.00 241.50 L 103.00 242.50 L 102.00 243.50 L 101.00 244.50 L 100.00 245.50 L 99.50 247.00 L 98.50 248.00 L 97.50 249.00 L 96.50 250.00 L 95.50 251.00 L 94.50 252.00 L 93.50 253.00 L 92.50 254.00 L 91.50 255.00 L 90.50 256.00 L 89.50 257.00 L 89.00 258.50 L 88.00 259.50 L 87.00 260.50 L 86.00 261.50 L 85.00 262.50 L 84.00 263.50 L 82.00 263.50 L 80.00 263.50 L 78.00 263.50 L 76.00 263.50 L 74.00 263.50 L 72.50 263.00 L 71.50 263.00 L 70.00 263.50 L 68.00 263.50 L 66.50 263.00 L 65.00 262.50 L 63.00 262.50 L 61.00 262.50 L 59.00 262.50 L 57.00 262.50 L 55.50 263.00 L 54.00 263.50 L 52.50 263.00 L 51.50 263.00 L 50.00 263.50 L 48.00 263.50 L 46.00 263.50 L 44.50 263.00 L 43.50 263.00 L 42.00 263.50 L 40.00 263.50 L 38.00 263.50 L 36.00 263.50 L 34.00 263.50 L 32.00 263.50 L 30.00 263.50 L 28.00 263.50 L 26.00 263.50 L 24.00 263.50 L 22.50 263.00 L 21.50 263.00 L 20.00 263.50 L 18.50 263.00 L 17.00 262.50 L 15.00 262.50 L 13.00 262.50 L 11.00 262.50 L 9.50 262.00 L 10.50 261.00 L 11.50 260.00 L 12.50 259.00 L 13.50 258.00 L 14.50 257.00 L 15.50 256.00 L 16.00 254.50 L 17.00 253.50 L 18.00 252.50 L 19.00 251.50 L 20.00 250.50 L 21.00 249.50 L 22.00 248.50 L 23.00 247.50 L 24.00 246.50 L 25.00 245.50 L 25.50 244.00 L 26.50 243.00 L 27.50 242.00 L 28.50 241.00 L 29.50 240.00 L 30.50 239.00 L 31.50 238.00 L 32.50 237.00 L 33.50 236.00 L 34.50 235.00 L 35.00 233.50 L 36.00 232.50 L 37.00 231.50 L 38.00 230.50 L 39.00 229.50 L 40.00 228.50 L 41.00 227.50 L 42.00 226.50 L 43.00 225.50 L 44.00 224.50 L 45.00 223.50 L 46.00 222.50 L 46.50 221.00 L 47.50 220.00 L 48.50 219.00 L 49.50 218.00 L 50.50 217.00 L 51.50 216.00 L 52.50 215.00 L 53.50 214.00 L 54.50 213.00 L 55.50 212.00 L 56.00 210.50 L 57.00 209.50 L 58.00 208.50 L 59.00 207.50 L 60.00 206.50 L 61.00 205.50 L 62.00 204.50 L 63.00 203.50 L 64.00 202.50 L 65.00 201.50 L 65.50 200.00 L 66.50 199.00 L 67.50 198.00 L 68.50 197.00 L 69.50 196.00 L 70.50 195.00 L 71.50 194.00 L 72.50 193.00 L 73.50 192.00 L 74.50 191.00 L 75.50 190.00 L 76.50 189.00 L 77.00 187.50 L 78.00 186.50 L 79.00 185.50 L 81.00 185.50 L 82.50 185.00 L 84.00 184.50 L 86.00 184.50 L 87.50 184.00 L 89.00 183.50 L 91.00 183.50 L 92.50 183.00 L 94.00 182.50 L 96.00 182.50 L 97.00 181.50 L 99.00 181.50 L 101.00 181.50 L 102.00 180.50 L 104.00 180.50 L 105.50 180.00 L 107.00 179.50 L 109.00 179.50 L 110.00 178.50 L 112.00 178.50 L 114.00 178.50 L 115.00 177.50 L 117.00 177.50 L 118.50 177.00 L 120.00 176.50 L 122.00 176.50 L 123.50 176.00 L 125.00 175.50 L 127.00 175.50 L 128.00 174.50 L 130.00 174.50 L 131.50 174.00 L 133.00 173.50 L 135.00 173.50 L 136.00 172.50 L 138.00 172.50 L 140.00 172.50 L 141.00 171.50 L 143.00 171.50 L 144.50 171.00 L 146.00 170.50 L 148.00 170.50 L 149.00 169.50 L 151.00 169.50 L 153.00 169.50 L 154.00 168.50 L 156.00 168.50 L 157.50 168.00 L 159.00 167.50 L 161.00 167.50 L 162.00 166.50 L 164.00 166.50 L 166.00 166.50 L 167.00 165.50 L 169.00 165.50 L 170.50 165.00 L 172.00 164.50 L 174.00 164.50 L 175.50 164.00 L 177.00 163.50 L 179.00 163.50 L 180.00 162.50 L 182.00 162.50 L 184.00 162.50 L 185.00 161.50 L 187.00 161.50 L 188.50 161.00 L 190.00 160.50 L 192.00 160.50 L 193.00 159.50 L 195.00 159.50 L 197.00 159.50 L 198.00 158.50 L 200.00 158.50 L 201.50 158.00 L 203.00 157.50 L 205.00 157.50 L 206.50 157.00 L 208.00 156.50 L 210.00 156.50 L 211.00 155.50 L 212.00 154.50 L 213.00 153.50 L 214.00 152.50 L 215.00 151.50 L 216.00 150.50 L 217.00 149.50 L 218.00 148.50 L 219.00 147.50 L 220.00 146.50 L 221.00 145.50 L 222.00 144.50 L 222.50 143.00 L 223.50 142.00 L 224.50 141.00 L 225.50 140.00 L 226.50 139.00 L 227.50 138.00 L 228.50 137.00 L 229.50 136.00 L 230.50 135.00 L 231.50 134.00 L 232.50 133.00 L 233.00 131.50 L 234.00 130.50 L 235.00 129.50 L 236.00 128.50 L 237.00 127.50 L 238.00 126.50 L 239.00 125.50 L 240.00 124.50 L 241.00 123.50 L 241.50 122.00 L 242.50 121.00 L 243.50 120.00 L 244.50 119.00 L 245.50 118.00 L 246.50 117.00 L 247.50 116.00 L 248.50 115.00 L 249.50 114.00 L 250.50 113.00 L 251.50 112.00 L 252.00 110.50 L 253.00 109.50 L 254.00 108.50 L 255.00 107.50 L 256.00 108.50 L 257.00 109.50 L 258.00 110.50 L 259.00 111.50 L 260.00 112.50 L 261.00 113.50 L 262.00 114.50 L 263.00 115.50 L 264.00 116.50 L 265.00 117.50 L 266.00 118.50 L 267.00 119.50 L 268.00 120.50 L 269.00 121.50 L 269.50 123.00 L 270.50 124.00 L 271.50 125.00 L 272.50 126.00 L 273.50 127.00 L 274.50 128.00 L 275.50 129.00 L 276.50 130.00 L 277.50 131.00 L 278.50 132.00 L 279.50 133.00 L 280.50 134.00 L 281.50 135.00 L 282.50 136.00 L 283.50 137.00 L 284.50 138.00 L 285.50 139.00 L 286.00 140.50 L 287.00 141.50 L 288.00 142.50 L 289.00 143.50 L 290.00 144.50 L 291.00 145.50 L 292.00 146.50 L 293.00 147.50 L 294.00 148.50 L 295.00 149.50 L 296.00 150.50 L 297.00 151.50 L 298.00 152.50 L 299.00 153.50 L 300.00 154.50 L 301.00 155.50 L 302.00 156.50 L 303.00 157.50 L 303.50 159.00 L 304.50 160.00 L 305.50 161.00 L 306.50 162.00 L 307.50 163.00 L 308.50 164.00 L 309.50 165.00 L 310.50 166.00 L 311.50 167.00 L 312.50 168.00 L 313.50 169.00 L 314.50 170.00 L 315.50 171.00 L 316.50 172.00 L 317.50 173.00 L 318.50 174.00 L 319.50 175.00 L 320.50 176.00 L 321.50 177.00 L 322.50 178.00 L 323.50 179.00 L 324.00 180.50 L 325.00 181.50 L 326.00 182.50 L 327.00 183.50 L 328.00 184.50 L 329.00 185.50 L 330.00 186.50 L 331.00 187.50 L 332.00 188.50 L 333.00 189.50 L 334.00 190.50 L 335.00 191.50 L 336.00 192.50 L 337.00 193.50 L 338.00 194.50 L 339.00 195.50 L 340.00 196.50 L 341.00 197.50 L 342.00 198.50 L 343.00 199.50 L 344.00 200.50 L 345.00 201.50 L 345.50 203.00 L 346.50 204.00 L 348.00 204.50 L 348.50 206.00 L 349.50 207.00 L 350.50 208.00 L 351.50 209.00 L 352.50 210.00 L 353.50 211.00 L 354.50 212.00 L 355.50 213.00 L 356.50 214.00 L 357.50 215.00 L 358.50 216.00 L 359.50 217.00 L 360.50 218.00 L 361.50 219.00 L 362.50 220.00 L 363.50 221.00 L 364.50 222.00 L 365.50 223.00 L 366.50 224.00 L 367.50 225.00 L 368.50 226.00 L 369.50 227.00 L 370.50 228.00 L 371.50 229.00 L 372.50 230.00 L 373.00 231.50 L 374.00 232.50 L 375.00 233.50 L 376.00 234.50 L 377.00 235.50 L 378.00 236.50 L 379.00 237.50 L 380.00 238.50 L 381.00 239.50 L 382.00 240.50 L 383.00 241.50 L 384.00 242.50 L 385.00 243.50 L 386.00 244.50 L 387.00 245.50 L 388.00 246.50 L 389.00 247.50 L 390.00 248.50 L 391.00 249.50 L 392.00 250.50 L 393.00 251.50 L 394.00 252.50 L 395.00 253.50 L 396.00 254.50 L 397.00 255.50 L 398.00 256.50 L 399.00 257.50 L 399.50 259.00 L 400.50 260.00 L 401.50 261.00 L 402.50 262.00 L 402.00 263.50 Z M 97.00 166.50 L 97.00 165.50 L 97.00 166.50 Z"/>
  </g>
</svg>
